# xmcd
#
# Track frame offsets: 
#        150
#        11612
#        23325
#        42725
#        58937
#        72650
#        86550
#        98625
#        116887
#        127862
#        141162
#        154500
#        169162
#        185362
#        204362
#        216962
#
# Disc length: 3069 seconds
#
# Revision: 1
# Processed by: cddbd v1.5.1PL0 Copyright (c) Steve Scherf et al.
# Submitted via: ExactAudioCopy v0.95a5
#
DISCID=df0bfb10
DTITLE=Various Artist - Country Hall Of Fame 1 (The Spirit Of America Series)
DYEAR=1993
DGENRE=Country
TTITLE0=Willie Nelson - On The Road Again -1980
TTITLE1=Johnny Cash - Ring Of Fire -1967
TTITLE2=David Allen Coe - Please Come To Boston -1976
TTITLE3=Charlie Daniels Band - The Devil Went Down To Georgia -1979
TTITLE4=Waylon Jennings Willie Nelson Johnny Cash Kris Kris Tofferson 
TTITLE4=/ Highwayman -1985
TTITLE5=Lacy J. Dalton - Feedin' The Fire -1981
TTITLE6=Tammy Wynete - Stand By Your Man -1968
TTITLE7=Dolly Parton - The River Unbroken -1987
TTITLE8=Merle Haggard - Okie From Mukogee -1985
TTITLE9=Tanya Tucker - Let Me Be There -1974
TTITLE10=Charlie Rich - Behind Closed Doors -1976
TTITLE11=Bellamy Brothers - Let Your Love Flow 
TTITLE12=Exile - She's Too Good To Be True -1985
TTITLE13=Bobby Bare - Tequila Sheila
TTITLE14=Debby Boone - Free To Be Lonely Again
TTITLE15=Janie Fricke - Blue Sky Shining -1980
EXTD=(c)1993 Sony Music Entertainment - COLUMBIA\nupc 5099747230523\nC
EXTD=OL 472305-2
EXTT0=
EXTT1=
EXTT2=
EXTT3=
EXTT4=
EXTT5=
EXTT6=
EXTT7=
EXTT8=
EXTT9=
EXTT10=
EXTT11=
EXTT12=
EXTT13=
EXTT14=
EXTT15=
PLAYORDER=
